<svg width="84" height="24" viewBox="0 0 84 24" fill="none" xmlns="http://www.w3.org/2000/svg">
<path d="M72.0796 2.49761L71.6491 9.70133L64.0723 9.50043L64.1871 11.0502L72.8258 11.2224L72.4527 13.8915L61.6328 13.461L61.805 6.80262H69.2957L69.4105 5.36762L61.805 4.90842L62.0346 2.49761H72.0796ZM79.6278 10.2466L79.2547 13.0879L76.155 12.7148L76.3559 1.86621H79.599L79.7425 6.94612L83.5023 7.34792V10.1031L79.6278 10.2466ZM75.8106 16.044C76.9299 16.5032 77.9345 17.4503 78.1641 18.627C78.3937 19.8324 77.791 21.0665 76.9012 21.8702C75.9828 22.6451 74.7774 23.0469 73.6007 23.2478C72.5101 23.42 71.3908 23.4487 70.3289 23.1904C69.267 22.9321 68.2625 22.3294 67.6024 21.4397C66.971 20.5786 66.7127 19.3732 67.0858 18.34C67.4015 17.3929 67.9181 16.5606 68.8078 16.1014C69.6975 15.6422 70.3289 15.3552 72.2518 15.3552C73.4572 15.47 74.6913 15.5561 75.8106 16.044ZM74.8061 20.1194C75.0357 19.8324 75.007 19.4019 74.8061 19.0862C74.6052 18.7992 74.2321 18.4835 73.8877 18.3974C73.5433 18.3113 73.0841 18.1965 72.5101 18.2252C71.8213 18.2539 71.6491 18.2826 71.276 18.34C70.8742 18.3974 70.5011 18.5409 70.2141 18.7992C69.8984 19.0575 69.7262 19.5168 69.8697 19.8899C70.0419 20.2917 70.5011 20.4926 70.9316 20.5787C71.9648 20.8083 73.0554 20.7509 74.0599 20.4925C74.3182 20.4065 74.6052 20.3204 74.8061 20.1194Z" fill="#2B343B" style="fill:#2B343B;fill:color(display-p3 0.1686 0.2039 0.2314);fill-opacity:1;"/>
<path d="M42.4474 7.83501C42.8779 6.94531 43.5954 6.17041 44.5712 5.65381C46.2071 4.79281 48.2448 4.96501 49.8233 5.76861C51.3157 6.48611 52.3776 7.77761 52.5785 9.44221C52.8081 11.1355 52.2915 13.0584 51.0574 14.2925C50.5408 14.8091 49.8807 15.1248 49.1919 15.3257C47.8143 15.6988 46.0636 15.6127 44.7721 15.01C44.4851 14.8952 44.2268 14.723 43.9685 14.5508C41.7586 12.9723 41.3855 10.0449 42.4474 7.83501ZM49.3354 10.3606V10.3893C49.278 9.15522 48.13 8.26551 46.9246 8.26551C46.0349 8.26551 45.0017 8.98301 44.9156 9.87272C44.6573 12.0539 46.8672 12.8862 48.2448 12.2261C48.9336 11.8817 49.3641 11.1355 49.3354 10.3606ZM55.5059 19.315V4.87891L58.749 4.3623L58.4333 19.8603L55.5059 19.315Z" fill="#2B343B" style="fill:#2B343B;fill:color(display-p3 0.1686 0.2039 0.2314);fill-opacity:1;"/>
<path d="M29.3456 0L32.6462 0.229601L32.5314 1.6359L36.2337 1.8655L35.3153 4.90771L39.0176 6.19921L37.6113 8.35172L32.5314 6.91671L26.4469 8.03602L25.3563 5.74001L32.474 4.13281L26.0738 3.93191L25.672 1.6072L29.3743 1.6359L29.3456 0ZM32.8471 14.7518L29.69 15.0675V13.0585L24.5527 12.6854V10.3033L38.8454 10.4468L38.501 13.1733L32.8471 13.0872V14.7518ZM37.1521 22.3573L25.6146 21.5537L25.385 15.9572H28.5133L28.829 19.2003L37.1521 19.516V22.3573Z" fill="#2B343B" style="fill:#2B343B;fill:color(display-p3 0.1686 0.2039 0.2314);fill-opacity:1;"/>
<path d="M5.13731 9.24213L1.8368 12.4278L0 10.1031L5.48171 3.18641L7.94992 4.24832L7.00281 7.06092L11.5087 9.24213L9.87282 12.1121L5.13731 9.24213ZM17.794 10.2466L17.4209 13.0879L14.3213 12.7148L14.5222 1.86621H17.7653L17.9088 6.94612L21.6685 7.34792V10.1031L17.794 10.2466ZM3.53011 22.7886L4.01801 15.2117L16.2442 15.5848L15.6702 23.6209L3.53011 22.7886ZM6.83061 17.8521V20.3204L12.8576 20.6935L13.0585 18.1678L6.83061 17.8521Z" fill="#2B343B" style="fill:#2B343B;fill:color(display-p3 0.1686 0.2039 0.2314);fill-opacity:1;"/>
</svg>
