<svg width="144" height="41" viewBox="0 0 144 41" fill="none" xmlns="http://www.w3.org/2000/svg">
<path d="M123.689 4.28527L122.95 16.6468L109.949 16.3021L110.146 18.9616L124.97 19.2571L124.329 23.8372L105.762 23.0985L106.058 11.6727H118.912L119.109 9.2102L106.058 8.42221L106.452 4.28527H123.689ZM136.642 17.5826L136.002 22.4583L130.683 21.818L131.027 3.20178H136.593L136.839 11.9189L143.29 12.6084V17.3363L136.642 17.5826ZM130.092 27.5309C132.012 28.3189 133.736 29.9442 134.13 31.9634C134.524 34.0318 133.49 36.1496 131.963 37.5285C130.387 38.8583 128.319 39.5478 126.299 39.8925C124.428 40.188 122.507 40.2373 120.685 39.794C118.863 39.3508 117.139 38.3165 116.006 36.7898C114.923 35.3123 114.48 33.2439 115.12 31.4709C115.662 29.8457 116.548 28.4174 118.075 27.6294C119.602 26.8414 120.685 26.349 123.985 26.349C126.053 26.546 128.171 26.6937 130.092 27.5309ZM128.368 34.5243C128.762 34.0318 128.713 33.2931 128.368 32.7514C128.023 32.2589 127.383 31.7171 126.792 31.5694C126.201 31.4216 125.413 31.2246 124.428 31.2739C123.246 31.3231 122.95 31.3724 122.31 31.4709C121.621 31.5694 120.98 31.8156 120.488 32.2589C119.946 32.7021 119.651 33.4901 119.897 34.1303C120.193 34.8198 120.98 35.1646 121.719 35.3123C123.492 35.7063 125.364 35.6078 127.087 35.1646C127.531 35.0168 128.023 34.8691 128.368 34.5243Z" fill="#2B343B" style="fill:#2B343B;fill:color(display-p3 0.1686 0.2039 0.2314);fill-opacity:1;"/>
<path d="M72.8403 13.4445C73.5791 11.9178 74.8103 10.5881 76.4848 9.70157C79.292 8.22409 82.7887 8.51959 85.4974 9.89857C88.0584 11.1298 89.8806 13.346 90.2253 16.2025C90.6193 19.1082 89.7328 22.4079 87.6151 24.5256C86.7286 25.4121 85.5959 25.9538 84.4139 26.2986C82.0499 26.9388 79.0457 26.7911 76.8295 25.7568C76.337 25.5598 75.8938 25.2644 75.4505 24.9689C71.6583 22.2601 71.0181 17.2367 72.8403 13.4445ZM84.6602 17.7785V17.8277C84.5617 15.71 82.5917 14.1833 80.5232 14.1833C78.9965 14.1833 77.2235 15.4145 77.0758 16.9412C76.6325 20.6842 80.4247 22.1124 82.7887 20.9797C83.9707 20.3887 84.7094 19.1082 84.6602 17.7785ZM95.2488 33.1442V8.37184L100.814 7.48535L100.272 34.08L95.2488 33.1442Z" fill="#2B343B" style="fill:#2B343B;fill:color(display-p3 0.1686 0.2039 0.2314);fill-opacity:1;"/>
<path d="M50.3582 0L56.0218 0.393995L55.8249 2.80721L62.178 3.2012L60.602 8.42163L66.9552 10.6378L64.542 14.3315L55.8249 11.8691L45.384 13.7898L43.5125 9.84986L55.7264 7.0919L44.7438 6.74716L44.0543 2.75796L50.4074 2.80721L50.3582 0ZM56.3666 25.3141L50.9492 25.8559V22.4084L42.1335 21.7682V17.6805L66.6597 17.9267L66.0687 22.6054L56.3666 22.4577V25.3141ZM63.754 38.3652L43.9558 36.9862L43.5618 27.3826H48.9299L49.4717 32.9478L63.754 33.4895V38.3652Z" fill="#2B343B" style="fill:#2B343B;fill:color(display-p3 0.1686 0.2039 0.2314);fill-opacity:1;"/>
<path d="M8.81563 15.8586L3.15196 21.3253L0 17.3361L9.40662 5.46702L13.6421 7.28925L12.0168 12.1157L19.749 15.8586L16.9418 20.7836L8.81563 15.8586ZM30.5346 17.5824L29.8943 22.458L24.5754 21.8178L24.9201 3.20155H30.4853L30.7316 11.9187L37.1832 12.6082V17.3361L30.5346 17.5824ZM6.05766 39.1043L6.8949 26.1025L27.8751 26.7427L26.8901 40.5325L6.05766 39.1043ZM11.7213 30.6334V34.8689L22.0637 35.5091L22.4084 31.1752L11.7213 30.6334Z" fill="#2B343B" style="fill:#2B343B;fill:color(display-p3 0.1686 0.2039 0.2314);fill-opacity:1;"/>
</svg>
