<svg width="55" height="64" viewBox="0 0 55 64" fill="none" xmlns="http://www.w3.org/2000/svg">
<path d="M7.73097 3.237L16.6223 1.62882e-06L17.9572 3.80822L27.8985 0.104112L29.0354 9.12127L40.2111 8.19199L39.0387 15.4515L24.0964 17.6073L9.49863 27.6055L3.97963 22.8737L20.71 10.3995L3.75252 17.3149L3.17254e-05 11.7074L9.70777 7.47836L7.73097 3.237ZM34.0299 37.714L26.1475 42.2091L23.8119 36.9594L9.95406 41.9568L7.18477 35.7322L44.6992 19.4915L46.9689 27.0164L32.0948 33.3643L34.0299 37.714ZM54.1209 52.583L23.0386 63.8958L15.9325 49.5386L24.107 45.9019L28.7022 54.0093L50.8178 45.1584L54.1209 52.583Z" fill="white" fill-opacity="0.5" style="fill:white;fill-opacity:0.5;"/>
</svg>
