<svg width="11" height="11" viewBox="0 0 11 11" fill="none" xmlns="http://www.w3.org/2000/svg">
<g clip-path="url(#clip0_212_387)">
<path d="M9.22255 4.52085L7.45108 6.04944L7.99079 8.33542C8.02057 8.45952 8.0129 8.58965 7.96876 8.70939C7.92461 8.82913 7.84597 8.9331 7.74276 9.00817C7.63956 9.08323 7.51642 9.12603 7.3889 9.13115C7.26139 9.13626 7.13522 9.10348 7.02633 9.03692L5.03834 7.81343L3.04918 9.03692C2.9403 9.10309 2.81428 9.13557 2.68699 9.13026C2.55969 9.12496 2.43681 9.0821 2.33382 9.0071C2.23083 8.9321 2.15233 8.8283 2.10822 8.70878C2.0641 8.58925 2.05633 8.45935 2.08589 8.33542L2.62757 6.04944L0.856099 4.52085C0.75977 4.4376 0.690103 4.32781 0.655798 4.2052C0.621494 4.08258 0.624072 3.95258 0.663212 3.83143C0.702351 3.71027 0.776317 3.60333 0.875872 3.52396C0.975427 3.44459 1.09616 3.39631 1.22299 3.38515L3.54558 3.19776L4.44155 1.02948C4.49005 0.911315 4.57259 0.810235 4.67868 0.739097C4.78477 0.667958 4.90962 0.629974 5.03736 0.629974C5.16509 0.629974 5.28994 0.667958 5.39603 0.739097C5.50213 0.810235 5.58467 0.911315 5.63316 1.02948L6.52874 3.19776L8.85133 3.38515C8.97842 3.39589 9.0995 3.44391 9.19942 3.52317C9.29933 3.60243 9.37364 3.70941 9.41302 3.83071C9.45241 3.95202 9.45512 4.08224 9.42082 4.20508C9.38651 4.32792 9.31672 4.4379 9.22019 4.52125L9.22255 4.52085Z" fill="#6DBFFF" style="fill:#6DBFFF;fill:color(display-p3 0.4275 0.7490 1.0000);fill-opacity:1;"/>
</g>
<defs>
<clipPath id="clip0_212_387">
<rect width="10.0777" height="10.0777" fill="white" style="fill:white;fill-opacity:1;"/>
</clipPath>
</defs>
</svg>
