<svg width="28" height="28" viewBox="0 0 28 28" fill="none" xmlns="http://www.w3.org/2000/svg">
<path d="M5.42501 22.575C5.07793 22.575 4.78699 22.4576 4.5522 22.2228C4.31741 21.988 4.20001 21.6971 4.20001 21.35C4.20001 21.0029 4.31741 20.712 4.5522 20.4772C4.78699 20.2424 5.07793 20.125 5.42501 20.125H6.65001V11.55C6.65001 9.85542 7.16043 8.34969 8.18126 7.03281C9.2021 5.71594 10.5292 4.85333 12.1625 4.445V3.5875C12.1625 3.07708 12.3412 2.64323 12.6985 2.28594C13.0557 1.92865 13.4896 1.75 14 1.75C14.5104 1.75 14.9443 1.92865 15.3016 2.28594C15.6589 2.64323 15.8375 3.07708 15.8375 3.5875V4.445C17.4708 4.85333 18.7979 5.71594 19.8188 7.03281C20.8396 8.34969 21.35 9.85542 21.35 11.55V20.125H22.575C22.9221 20.125 23.213 20.2424 23.4478 20.4772C23.6826 20.712 23.8 21.0029 23.8 21.35C23.8 21.6971 23.6826 21.988 23.4478 22.2228C23.213 22.4576 22.9221 22.575 22.575 22.575H5.42501ZM14 26.25C13.3263 26.25 12.7495 26.0101 12.2697 25.5303C11.7899 25.0505 11.55 24.4737 11.55 23.8H16.45C16.45 24.4737 16.2101 25.0505 15.7303 25.5303C15.2505 26.0101 14.6738 26.25 14 26.25Z" fill="#2B343B" style="fill:#2B343B;fill:color(display-p3 0.1686 0.2039 0.2314);fill-opacity:1;"/>
</svg>
