<svg width="23" height="23" viewBox="0 0 23 23" fill="none" xmlns="http://www.w3.org/2000/svg">
<path d="M3.83333 18.2083V9.58329C3.83333 9.27982 3.90121 8.99232 4.03698 8.72079C4.17274 8.44927 4.36042 8.22565 4.6 8.04996L10.35 3.73746C10.6854 3.4819 11.0687 3.35413 11.5 3.35413C11.9312 3.35413 12.3146 3.4819 12.65 3.73746L18.4 8.04996C18.6396 8.22565 18.8273 8.44927 18.963 8.72079C19.0988 8.99232 19.1667 9.27982 19.1667 9.58329V18.2083C19.1667 18.7354 18.979 19.1866 18.6036 19.5619C18.2283 19.9373 17.7771 20.125 17.25 20.125H14.375C14.1035 20.125 13.8759 20.0331 13.6922 19.8494C13.5085 19.6658 13.4167 19.4382 13.4167 19.1666V14.375C13.4167 14.1034 13.3248 13.8758 13.1411 13.6921C12.9575 13.5085 12.7299 13.4166 12.4583 13.4166H10.5417C10.2701 13.4166 10.0425 13.5085 9.85885 13.6921C9.67517 13.8758 9.58333 14.1034 9.58333 14.375V19.1666C9.58333 19.4382 9.49149 19.6658 9.30781 19.8494C9.12413 20.0331 8.89653 20.125 8.625 20.125H5.75C5.22292 20.125 4.7717 19.9373 4.39635 19.5619C4.02101 19.1866 3.83333 18.7354 3.83333 18.2083Z" fill="currentColor"/>
</svg>
