<svg width="62" height="64" viewBox="0 0 62 64" fill="none" xmlns="http://www.w3.org/2000/svg">
<path d="M14.8437 16.5309L3.43575 23.0097L2.28699e-05 15.264L20.1028 5.94166e-06L26.1854 4.69639L21.5622 11.8147L32.494 21.0604L25.9219 27.848L14.8437 16.5309ZM49.1917 28.3114L46.1382 35.9173L37.8168 32.6801L46.0857 2.76971L55.0699 5.07526L51.8561 19.2498L61.9857 23.0357L60.027 30.6683L49.1917 28.3114ZM0.761088 52.9152L7.49911 32.2724L41.1034 41.9977L33.8004 63.8513L0.761088 52.9152ZM13.4136 41.5865L11.6589 48.424L28.0899 53.7422L30.442 46.8885L13.4136 41.5865Z" fill="white" fill-opacity="0.5"/>
</svg>
