<svg width="23" height="23" viewBox="0 0 23 23" fill="none" xmlns="http://www.w3.org/2000/svg">
<path d="M11.5 11.5C10.4458 11.5 9.54341 11.1247 8.79272 10.374C8.04202 9.62331 7.66668 8.72087 7.66668 7.66671C7.66668 6.61254 8.04202 5.71011 8.79272 4.95942C9.54341 4.20872 10.4458 3.83337 11.5 3.83337C12.5542 3.83337 13.4566 4.20872 14.2073 4.95942C14.958 5.71011 15.3333 6.61254 15.3333 7.66671C15.3333 8.72087 14.958 9.62331 14.2073 10.374C13.4566 11.1247 12.5542 11.5 11.5 11.5ZM3.83334 17.25V16.4834C3.83334 15.9403 3.9731 15.4412 4.25261 14.986C4.53213 14.5308 4.90348 14.1834 5.36668 13.9438C6.35695 13.4487 7.3632 13.0773 8.38543 12.8297C9.40765 12.5822 10.4458 12.4584 11.5 12.4584C12.5542 12.4584 13.5924 12.5822 14.6146 12.8297C15.6368 13.0773 16.6431 13.4487 17.6333 13.9438C18.0965 14.1834 18.4679 14.5308 18.7474 14.986C19.0269 15.4412 19.1667 15.9403 19.1667 16.4834V17.25C19.1667 17.7771 18.979 18.2283 18.6037 18.6037C18.2283 18.979 17.7771 19.1667 17.25 19.1667H5.75001C5.22293 19.1667 4.77171 18.979 4.39636 18.6037C4.02102 18.2283 3.83334 17.7771 3.83334 17.25Z" fill="currentColor"/>
</svg>
