<svg width="20" height="20" viewBox="0 0 20 20" fill="none" xmlns="http://www.w3.org/2000/svg">
<path d="M6.4 11.1999C6.17334 11.1999 5.98334 11.1232 5.83 10.9699C5.67667 10.8166 5.6 10.6266 5.6 10.3999C5.6 10.1732 5.67667 9.98323 5.83 9.8299C5.98334 9.67657 6.17334 9.5999 6.4 9.5999C6.62667 9.5999 6.81667 9.67657 6.97 9.8299C7.12334 9.98323 7.2 10.1732 7.2 10.3999C7.2 10.6266 7.12334 10.8166 6.97 10.9699C6.81667 11.1232 6.62667 11.1999 6.4 11.1999ZM9.6 11.1999C9.37334 11.1999 9.18334 11.1232 9.03 10.9699C8.87667 10.8166 8.8 10.6266 8.8 10.3999C8.8 10.1732 8.87667 9.98323 9.03 9.8299C9.18334 9.67657 9.37334 9.5999 9.6 9.5999C9.82667 9.5999 10.0167 9.67657 10.17 9.8299C10.3233 9.98323 10.4 10.1732 10.4 10.3999C10.4 10.6266 10.3233 10.8166 10.17 10.9699C10.0167 11.1232 9.82667 11.1999 9.6 11.1999ZM12.8 11.1999C12.5733 11.1999 12.3833 11.1232 12.23 10.9699C12.0767 10.8166 12 10.6266 12 10.3999C12 10.1732 12.0767 9.98323 12.23 9.8299C12.3833 9.67657 12.5733 9.5999 12.8 9.5999C13.0267 9.5999 13.2167 9.67657 13.37 9.8299C13.5233 9.98323 13.6 10.1732 13.6 10.3999C13.6 10.6266 13.5233 10.8166 13.37 10.9699C13.2167 11.1232 13.0267 11.1999 12.8 11.1999ZM4 17.5999C3.56 17.5999 3.18333 17.4432 2.87 17.1299C2.55667 16.8166 2.4 16.4399 2.4 15.9999V4.7999C2.4 4.3599 2.55667 3.98323 2.87 3.6699C3.18333 3.35657 3.56 3.1999 4 3.1999H4.8V2.3999C4.8 2.17323 4.87667 1.98323 5.03 1.8299C5.18334 1.67657 5.37334 1.5999 5.6 1.5999C5.82667 1.5999 6.01667 1.67657 6.17 1.8299C6.32334 1.98323 6.4 2.17323 6.4 2.3999V3.1999H12.8V2.3999C12.8 2.17323 12.8767 1.98323 13.03 1.8299C13.1833 1.67657 13.3733 1.5999 13.6 1.5999C13.8267 1.5999 14.0167 1.67657 14.17 1.8299C14.3233 1.98323 14.4 2.17323 14.4 2.3999V3.1999H15.2C15.64 3.1999 16.0167 3.35657 16.33 3.6699C16.6433 3.98323 16.8 4.3599 16.8 4.7999V15.9999C16.8 16.4399 16.6433 16.8166 16.33 17.1299C16.0167 17.4432 15.64 17.5999 15.2 17.5999H4ZM4 15.9999H15.2V7.9999H4V15.9999Z" fill="#989898" style="fill:#989898;fill:color(display-p3 0.5971 0.5971 0.5971);fill-opacity:1;"/>
</svg>
