<svg width="23" height="23" viewBox="0 0 23 23" fill="none" xmlns="http://www.w3.org/2000/svg">
<path d="M11.5 20.4364C11.2764 20.4364 11.0528 20.3965 10.8292 20.3166C10.6056 20.2368 10.4059 20.117 10.2302 19.9573C9.19201 18.9989 8.27361 18.0645 7.475 17.1541C6.67638 16.2437 6.00954 15.3612 5.47447 14.5067C4.9394 13.6522 4.53211 12.8296 4.2526 12.039C3.97309 11.2484 3.83333 10.4937 3.83333 9.77496C3.83333 7.37913 4.60399 5.47045 6.14531 4.04892C7.68663 2.62739 9.47152 1.91663 11.5 1.91663C13.5285 1.91663 15.3134 2.62739 16.8547 4.04892C18.396 5.47045 19.1667 7.37913 19.1667 9.77496C19.1667 10.4937 19.0269 11.2484 18.7474 12.039C18.4679 12.8296 18.0606 13.6522 17.5255 14.5067C16.9904 15.3612 16.3236 16.2437 15.525 17.1541C14.7264 18.0645 13.808 18.9989 12.7698 19.9573C12.5941 20.117 12.3944 20.2368 12.1708 20.3166C11.9472 20.3965 11.7236 20.4364 11.5 20.4364ZM11.5 11.5C12.0271 11.5 12.4783 11.3123 12.8536 10.9369C13.229 10.5616 13.4167 10.1104 13.4167 9.58329C13.4167 9.05621 13.229 8.60499 12.8536 8.22965C12.4783 7.8543 12.0271 7.66663 11.5 7.66663C10.9729 7.66663 10.5217 7.8543 10.1463 8.22965C9.771 8.60499 9.58333 9.05621 9.58333 9.58329C9.58333 10.1104 9.771 10.5616 10.1463 10.9369C10.5217 11.3123 10.9729 11.5 11.5 11.5Z" fill="currentColor"/>
</svg>
