<svg width="11" height="11" viewBox="0 0 11 11" fill="none" xmlns="http://www.w3.org/2000/svg">
<g clip-path="url(#clip0_212_398)">
<path d="M9.22255 4.52082L7.45108 6.04941L7.99079 8.33539C8.02057 8.45949 8.0129 8.58962 7.96876 8.70936C7.92461 8.8291 7.84597 8.93307 7.74276 9.00814C7.63956 9.0832 7.51642 9.126 7.3889 9.13112C7.26139 9.13623 7.13522 9.10345 7.02633 9.03689L5.03834 7.8134L3.04918 9.03689C2.9403 9.10306 2.81428 9.13554 2.68699 9.13023C2.55969 9.12493 2.43681 9.08207 2.33382 9.00707C2.23083 8.93207 2.15233 8.82827 2.10822 8.70875C2.0641 8.58922 2.05633 8.45932 2.08589 8.33539L2.62757 6.04941L0.856099 4.52082C0.75977 4.43757 0.690103 4.32778 0.655798 4.20517C0.621494 4.08255 0.624072 3.95255 0.663212 3.8314C0.702351 3.71024 0.776317 3.6033 0.875872 3.52393C0.975427 3.44456 1.09616 3.39628 1.22299 3.38512L3.54558 3.19773L4.44155 1.02945C4.49005 0.911284 4.57259 0.810204 4.67868 0.739066C4.78477 0.667928 4.90962 0.629944 5.03736 0.629944C5.16509 0.629944 5.28994 0.667928 5.39603 0.739066C5.50213 0.810204 5.58467 0.911284 5.63316 1.02945L6.52874 3.19773L8.85133 3.38512C8.97842 3.39586 9.0995 3.44387 9.19942 3.52313C9.29933 3.60239 9.37364 3.70938 9.41302 3.83068C9.45241 3.95198 9.45512 4.08221 9.42082 4.20505C9.38651 4.32789 9.31672 4.43787 9.22019 4.52122L9.22255 4.52082Z" fill="#979797" style="fill:#979797;fill:color(display-p3 0.5922 0.5922 0.5922);fill-opacity:1;"/>
</g>
<defs>
<clipPath id="clip0_212_398">
<rect width="10.0777" height="10.0777" fill="white" style="fill:white;fill-opacity:1;"/>
</clipPath>
</defs>
</svg>
