<svg width="24" height="24" viewBox="0 0 24 24" fill="none" xmlns="http://www.w3.org/2000/svg">
<path d="M11 12.9999H6C5.71667 12.9999 5.47917 12.904 5.2875 12.7124C5.09583 12.5207 5 12.2832 5 11.9999C5 11.7165 5.09583 11.479 5.2875 11.2874C5.47917 11.0957 5.71667 10.9999 6 10.9999H11V5.99988C11 5.71654 11.0958 5.47904 11.2875 5.28738C11.4792 5.09571 11.7167 4.99988 12 4.99988C12.2833 4.99988 12.5208 5.09571 12.7125 5.28738C12.9042 5.47904 13 5.71654 13 5.99988V10.9999H18C18.2833 10.9999 18.5208 11.0957 18.7125 11.2874C18.9042 11.479 19 11.7165 19 11.9999C19 12.2832 18.9042 12.5207 18.7125 12.7124C18.5208 12.904 18.2833 12.9999 18 12.9999H13V17.9999C13 18.2832 12.9042 18.5207 12.7125 18.7124C12.5208 18.904 12.2833 18.9999 12 18.9999C11.7167 18.9999 11.4792 18.904 11.2875 18.7124C11.0958 18.5207 11 18.2832 11 17.9999V12.9999Z" fill="#262626" style="fill:#262626;fill:color(display-p3 0.1490 0.1490 0.1490);fill-opacity:1;"/>
</svg>
