<svg width="10" height="10" viewBox="0 0 10 10" fill="none" xmlns="http://www.w3.org/2000/svg">
<g clip-path="url(#clip0_123_2341)">
<path d="M4.79752 0.955336C4.81576 0.91848 4.84394 0.887456 4.87888 0.865765C4.91382 0.844074 4.95412 0.832581 4.99525 0.832581C5.03637 0.832581 5.07668 0.844074 5.11162 0.865765C5.14655 0.887456 5.17473 0.91848 5.19298 0.955336L6.15456 2.90307C6.21791 3.03127 6.31142 3.14218 6.42706 3.22628C6.54271 3.31039 6.67704 3.36518 6.81852 3.38594L8.96897 3.70064C9.00972 3.70655 9.048 3.72374 9.07949 3.75026C9.11098 3.77679 9.13441 3.8116 9.14714 3.85075C9.15988 3.88991 9.1614 3.93184 9.15154 3.97182C9.14168 4.01179 9.12084 4.04821 9.09136 4.07695L7.53617 5.59135C7.43361 5.6913 7.35687 5.81467 7.31256 5.95085C7.26825 6.08703 7.25771 6.23194 7.28183 6.37311L7.64898 8.51274C7.65617 8.55347 7.65177 8.5954 7.63628 8.63374C7.62079 8.67209 7.59483 8.70531 7.56137 8.72962C7.52791 8.75392 7.48829 8.76833 7.44703 8.7712C7.40577 8.77407 7.36454 8.76529 7.32803 8.74585L5.40569 7.73515C5.27903 7.66864 5.1381 7.63389 4.99504 7.63389C4.85198 7.63389 4.71105 7.66864 4.58439 7.73515L2.66246 8.74585C2.62597 8.76517 2.58479 8.77386 2.5436 8.77093C2.50241 8.76801 2.46287 8.75358 2.42948 8.72929C2.39608 8.705 2.37017 8.67183 2.3547 8.63355C2.33922 8.59527 2.3348 8.55341 2.34194 8.51274L2.70867 6.37352C2.7329 6.23229 2.7224 6.08729 2.67809 5.95103C2.63378 5.81476 2.55698 5.69132 2.45433 5.59135L0.89914 4.07737C0.869415 4.04866 0.848352 4.01218 0.838348 3.97208C0.828345 3.93199 0.829804 3.88989 0.84256 3.85058C0.855315 3.81127 0.878854 3.77634 0.910494 3.74976C0.942135 3.72318 0.980605 3.70601 1.02152 3.70023L3.17156 3.38594C3.3132 3.36534 3.44771 3.31062 3.56352 3.22651C3.67932 3.14239 3.77295 3.03139 3.83635 2.90307L4.79752 0.955336Z" fill="#333333" stroke="#333333" style="fill:#333333;fill:color(display-p3 0.2000 0.2000 0.2000);fill-opacity:1;stroke:#333333;stroke:color(display-p3 0.2000 0.2000 0.2000);stroke-opacity:1;" stroke-width="0.832542" stroke-linecap="round" stroke-linejoin="round"/>
</g>
<defs>
<clipPath id="clip0_123_2341">
<rect width="9.99051" height="9.99051" fill="white" style="fill:white;fill-opacity:1;"/>
</clipPath>
</defs>
</svg>
