<svg width="18" height="18" viewBox="0 0 18 18" fill="none" xmlns="http://www.w3.org/2000/svg">
<path d="M6.96667 11.7333C5.63445 11.7333 4.50695 11.272 3.58417 10.3492C2.66139 9.4264 2.2 8.2989 2.2 6.96668C2.2 5.63446 2.66139 4.50696 3.58417 3.58418C4.50695 2.6614 5.63445 2.20001 6.96667 2.20001C8.29889 2.20001 9.42639 2.6614 10.3492 3.58418C11.2719 4.50696 11.7333 5.63446 11.7333 6.96668C11.7333 7.50446 11.6478 8.01168 11.4767 8.48835C11.3056 8.96501 11.0733 9.38668 10.78 9.75335L14.8867 13.86C15.0211 13.9945 15.0883 14.1656 15.0883 14.3733C15.0883 14.5811 15.0211 14.7522 14.8867 14.8867C14.7522 15.0211 14.5811 15.0883 14.3733 15.0883C14.1656 15.0883 13.9944 15.0211 13.86 14.8867L9.75333 10.78C9.38667 11.0733 8.965 11.3056 8.48833 11.4767C8.01167 11.6478 7.50445 11.7333 6.96667 11.7333ZM6.96667 10.2667C7.88333 10.2667 8.6625 9.94585 9.30417 9.30418C9.94583 8.66251 10.2667 7.88335 10.2667 6.96668C10.2667 6.05001 9.94583 5.27085 9.30417 4.62918C8.6625 3.98751 7.88333 3.66668 6.96667 3.66668C6.05 3.66668 5.27083 3.98751 4.62917 4.62918C3.9875 5.27085 3.66667 6.05001 3.66667 6.96668C3.66667 7.88335 3.9875 8.66251 4.62917 9.30418C5.27083 9.94585 6.05 10.2667 6.96667 10.2667Z" fill="#989898" style="fill:#989898;fill:color(display-p3 0.5971 0.5971 0.5971);fill-opacity:1;"/>
</svg>
