<svg width="20" height="20" viewBox="0 0 20 20" fill="none" xmlns="http://www.w3.org/2000/svg">
<path d="M9.59455 1.91153C9.63103 1.83781 9.6874 1.77577 9.75727 1.73238C9.82715 1.689 9.90776 1.66602 9.99001 1.66602C10.0723 1.66602 10.1529 1.689 10.2227 1.73238C10.2926 1.77577 10.349 1.83781 10.3855 1.91153L12.3086 5.80699C12.4353 6.06339 12.6223 6.28521 12.8536 6.45342C13.0849 6.62163 13.3536 6.73121 13.6365 6.77274L17.9375 7.40215C18.0189 7.41395 18.0955 7.44833 18.1585 7.50138C18.2215 7.55444 18.2683 7.62406 18.2938 7.70236C18.3193 7.78067 18.3223 7.86454 18.3026 7.94449C18.2829 8.02444 18.2412 8.09728 18.1822 8.15476L15.0718 11.1836C14.8667 11.3834 14.7132 11.6302 14.6246 11.9026C14.536 12.1749 14.5149 12.4647 14.5632 12.7471L15.2975 17.0263C15.3118 17.1078 15.3031 17.1916 15.2721 17.2683C15.2411 17.345 15.1892 17.4115 15.1222 17.4601C15.0553 17.5087 14.9761 17.5375 14.8936 17.5433C14.8111 17.549 14.7286 17.5314 14.6556 17.4926L10.8109 15.4711C10.5576 15.3381 10.2757 15.2686 9.98959 15.2686C9.70346 15.2686 9.42162 15.3381 9.16829 15.4711L5.32444 17.4926C5.25145 17.5312 5.16909 17.5486 5.08671 17.5427C5.00433 17.5369 4.92525 17.508 4.85846 17.4594C4.79167 17.4109 4.73986 17.3445 4.70891 17.268C4.67795 17.1914 4.66911 17.1077 4.68338 17.0263L5.41685 12.7479C5.4653 12.4654 5.44431 12.1754 5.35569 11.9029C5.26707 11.6304 5.11348 11.3835 4.90817 11.1836L1.79779 8.1556C1.73834 8.09818 1.69622 8.02522 1.67621 7.94502C1.6562 7.86483 1.65912 7.78063 1.68463 7.70202C1.71014 7.6234 1.75722 7.55354 1.8205 7.50037C1.88378 7.44721 1.96072 7.41288 2.04256 7.40131L6.34264 6.77274C6.62592 6.73153 6.89494 6.6221 7.12655 6.45387C7.35816 6.28564 7.54542 6.06364 7.67221 5.80699L9.59455 1.91153Z" fill="#E9E9E9" stroke="#E9E9E9" stroke-width="1.66508" stroke-linecap="round" stroke-linejoin="round"/>
</svg>
