<svg width="16" height="16" viewBox="0 0 16 16" fill="none" xmlns="http://www.w3.org/2000/svg">
<path d="M14.3537 6.14628C14.4002 6.19273 14.437 6.24788 14.4622 6.30858C14.4873 6.36928 14.5003 6.43433 14.5003 6.50003C14.5003 6.56573 14.4873 6.63078 14.4622 6.69148C14.437 6.75217 14.4002 6.80732 14.3537 6.85378C14.3073 6.90023 14.2521 6.93708 14.1914 6.96223C14.1307 6.98737 14.0657 7.00031 14 7.00031C13.9343 7.00031 13.8692 6.98737 13.8085 6.96223C13.7478 6.93708 13.6927 6.90023 13.6462 6.85378L12.5 5.7069L11.3537 6.85378C11.2599 6.9476 11.1327 7.00031 11 7.00031C10.8673 7.00031 10.7401 6.9476 10.6462 6.85378C10.5524 6.75996 10.4997 6.63271 10.4997 6.50003C10.4997 6.36735 10.5524 6.2401 10.6462 6.14628L11.7931 5.00003L10.6462 3.85378C10.5998 3.80732 10.5629 3.75217 10.5378 3.69148C10.5127 3.63078 10.4997 3.56573 10.4997 3.50003C10.4997 3.43433 10.5127 3.36928 10.5378 3.30858C10.5629 3.24788 10.5998 3.19273 10.6462 3.14628C10.7401 3.05246 10.8673 2.99975 11 2.99975C11.0657 2.99975 11.1307 3.01269 11.1914 3.03783C11.2521 3.06297 11.3073 3.09982 11.3537 3.14628L12.5 4.29315L13.6462 3.14628C13.6927 3.09982 13.7478 3.06297 13.8085 3.03783C13.8692 3.01269 13.9343 2.99975 14 2.99975C14.0657 2.99975 14.1307 3.01269 14.1914 3.03783C14.2521 3.06297 14.3073 3.09982 14.3537 3.14628C14.4002 3.19273 14.437 3.24788 14.4622 3.30858C14.4873 3.36928 14.5003 3.43433 14.5003 3.50003C14.5003 3.56573 14.4873 3.63078 14.4622 3.69148C14.437 3.75217 14.4002 3.80732 14.3537 3.85378L13.2069 5.00003L14.3537 6.14628ZM7.99999 12C7.85166 12 7.70665 12.044 7.58331 12.1264C7.45998 12.2088 7.36385 12.326 7.30708 12.463C7.25032 12.6001 7.23546 12.7509 7.2644 12.8963C7.29334 13.0418 7.36477 13.1755 7.46966 13.2804C7.57455 13.3852 7.70819 13.4567 7.85367 13.4856C7.99916 13.5146 8.14996 13.4997 8.287 13.4429C8.42405 13.3862 8.54118 13.29 8.62359 13.1667C8.70601 13.0434 8.74999 12.8984 8.74999 12.75C8.74999 12.5511 8.67097 12.3604 8.53032 12.2197C8.38967 12.079 8.1989 12 7.99999 12ZM10.7944 9.90815C9.9822 9.3179 9.00399 8.99998 7.99999 8.99998C6.996 8.99998 6.01778 9.3179 5.20562 9.90815C5.09837 9.98623 5.02653 10.1037 5.0059 10.2347C4.98527 10.3658 5.01754 10.4997 5.09562 10.6069C5.17369 10.7142 5.29117 10.786 5.42221 10.8066C5.55325 10.8272 5.68712 10.795 5.79437 10.7169C6.43532 10.2508 7.20747 9.99968 7.99999 9.99968C8.79252 9.99968 9.56467 10.2508 10.2056 10.7169C10.2587 10.7556 10.3189 10.7834 10.3828 10.7988C10.4466 10.8142 10.5129 10.8168 10.5778 10.8066C10.6427 10.7964 10.7049 10.7735 10.7609 10.7392C10.817 10.705 10.8657 10.66 10.9044 10.6069C10.943 10.5538 10.9708 10.4936 10.9862 10.4297C11.0016 10.3659 11.0043 10.2996 10.9941 10.2347C10.9839 10.1699 10.961 10.1076 10.9267 10.0516C10.8924 9.99555 10.8475 9.94681 10.7944 9.90815ZM8.47624 4.01128C8.5419 4.0144 8.60754 4.00455 8.66939 3.98231C8.73125 3.96006 8.78812 3.92585 8.83675 3.88163C8.88539 3.8374 8.92483 3.78403 8.95284 3.72456C8.98085 3.66509 8.99687 3.60069 8.99999 3.53503C9.00311 3.46937 8.99327 3.40374 8.97102 3.34188C8.94877 3.28002 8.91456 3.22315 8.87034 3.17452C8.82612 3.12589 8.77275 3.08644 8.71328 3.05843C8.65381 3.03042 8.5894 3.0144 8.52374 3.01128C8.34999 3.00315 8.17374 2.99878 7.99999 2.99878C5.51417 3.00071 3.10552 3.86233 1.18249 5.43753C1.13173 5.47922 1.08967 5.53051 1.05873 5.58846C1.02779 5.6464 1.00856 5.70988 1.00215 5.77526C0.995732 5.84064 1.00226 5.90664 1.02135 5.96949C1.04045 6.03235 1.07174 6.09083 1.11343 6.14159C1.15512 6.19236 1.20641 6.23441 1.26436 6.26535C1.3223 6.2963 1.38578 6.31553 1.45116 6.32194C1.51654 6.32835 1.58254 6.32183 1.64539 6.30273C1.70825 6.28364 1.76673 6.25235 1.81749 6.21065C3.56142 4.78231 5.74579 4.00126 7.99999 4.00003C8.15812 4.00003 8.31812 4.00378 8.47624 4.01128ZM8.46624 7.01565C8.5319 7.02009 8.59779 7.01154 8.66015 6.99051C8.72251 6.96948 8.78012 6.93637 8.82968 6.89307C8.87924 6.84978 8.91979 6.79714 8.94902 6.73818C8.97824 6.67921 8.99556 6.61507 8.99999 6.5494C9.00442 6.48374 8.99588 6.41785 8.97485 6.35549C8.95381 6.29313 8.92071 6.23553 8.87741 6.18597C8.83412 6.1364 8.78148 6.09585 8.72252 6.06663C8.66355 6.03741 8.5994 6.02009 8.53374 6.01565C8.35687 6.00378 8.17749 5.99753 7.99999 5.99753C6.25206 5.99067 4.55419 6.58095 3.18749 7.67065C3.106 7.73523 3.04667 7.8236 3.01775 7.92347C2.98884 8.02334 2.99177 8.12975 3.02615 8.22787C3.06053 8.326 3.12465 8.41096 3.20958 8.47094C3.29451 8.53092 3.39602 8.56294 3.49999 8.56253C3.61347 8.56332 3.72378 8.52516 3.81249 8.4544C5.00207 7.50706 6.4793 6.994 7.99999 7.00003C8.15499 7.00003 8.31249 7.00503 8.46624 7.01565Z" fill="black" style="fill:black;fill-opacity:1;"/>
</svg>
